<?xml version="1.0" encoding="utf-8"?>
<!-- Generator: Adobe Illustrator 23.0.0, SVG Export Plug-In . SVG Version: 6.00 Build 0)  -->
<svg version="1.1" id="Layer_1" xmlns="http://www.w3.org/2000/svg" xmlns:xlink="http://www.w3.org/1999/xlink" x="0px" y="0px"
	 viewBox="0 0 558.9 488.6" style="enable-background:new 0 0 558.9 488.6;" xml:space="preserve">
<style type="text/css">
	.st0{fill:#A1BF88;}
	.st1{fill:#DE7826;}
	.st2{fill:#C16828;}
	.st3{fill:#FFC910;}
	.st4{fill:#FAD059;}
	.st5{fill:#B5D997;}
	.st6{fill:#212121;}
	.st7{fill:#ED8A6B;}
	.st8{fill:#FFFFFF;}
	.st9{opacity:0.3;fill:#A3DCE7;enable-background:new    ;}
</style>
<g id="_x34_">
	<g>
		<g>
			<g>
				<path class="st0" d="M189,167.7c4.5-2.7,7.6-9.2,7.2-16.5c-0.5-9.5-6.4-17-13.2-16.6s-11.9,8.4-11.4,17.9c0.3,6,2.7,11.1,6.2,14
					c3,47.6,43,76.1,44.9,77.5l6.4-9.1C228.6,234.5,192.8,209,189,167.7z"/>
				<path class="st0" d="M358.3,167.7c-4.5-2.7-7.6-9.2-7.2-16.5c0.5-9.5,6.4-17,13.2-16.6c6.8,0.3,11.9,8.4,11.4,17.9
					c-0.3,6-2.7,11.1-6.2,14c-3,47.6-43,76.1-44.9,77.5l-6.4-9.1C318.7,234.5,354.5,209,358.3,167.7z"/>
			</g>
			<ellipse class="st1" cx="274.5" cy="389.3" rx="120.3" ry="99.3"/>
			<path class="st2" d="M274.5,288.7c-66.4,0-120.3,44.5-120.3,99.3c0,14,3.5,27.3,9.8,39.4c30.3,13.6,68.7,21.7,110.5,21.7
				s80.2-8.1,110.5-21.7c6.3-12.1,9.8-25.4,9.8-39.4C394.8,333.2,341,288.7,274.5,288.7z"/>
			<ellipse class="st3" cx="279.5" cy="312.8" rx="279.5" ry="69.7"/>
			<g>
				<g>
					<g>
						<path class="st1" d="M0,298.6"/>
					</g>
					<g>
						<path class="st1" d="M558.9,298.6"/>
					</g>
					<g>
						<path class="st1" d="M279.5,368.3C125.1,368.3,0,337.1,0,298.6C0,359.6,125.1,409,279.5,409s279.5-49.4,279.5-110.4
							C558.9,337.1,433.8,368.3,279.5,368.3z"/>
					</g>
				</g>
			</g>
			<ellipse class="st4" cx="279.5" cy="270.2" rx="153" ry="28.4"/>
			<g>
				<path class="st5" d="M334.4,294.9V177.1c0-33-26.8-59.8-59.8-59.8l0,0c-33,0-59.8,26.8-59.8,59.8v117.8H334.4z"/>
				<g>
					<path class="st6" d="M274.6,215.4c24.2,0,43.8-19.6,43.8-43.8h-87.7C230.7,195.8,250.3,215.4,274.6,215.4z"/>
					<path class="st7" d="M301.6,206c-6.5-9.4-16.2-15.4-27.1-15.4s-20.5,6-27.1,15.4c7.5,5.9,16.8,9.4,27.1,9.4
						S294.2,211.9,301.6,206z"/>
				</g>
				<g>
					<g>
						<g>
							<circle class="st8" cx="275.6" cy="112.1" r="26.9"/>
						</g>
						<g>
							<path class="st5" d="M251.1,93.6c10.2-13.5,29.5-16.1,43-5.9c13.5,10.2,16.1,29.5,5.9,43s-29.5,16.1-43,5.9
								C243.5,126.4,240.9,107.1,251.1,93.6z M257.1,98.1c-7.7,10.2-5.7,24.7,4.5,32.4s24.7,5.7,32.5-4.5
								c7.7-10.2,5.7-24.7-4.5-32.4C279.4,85.9,264.8,87.9,257.1,98.1z"/>
						</g>
					</g>
					<circle class="st6" cx="274.8" cy="112.2" r="3.8"/>
				</g>
			</g>
			<g>
				<path class="st9" d="M274.5,0L274.5,0c-84.8,0-153.6,68.8-153.6,153.6v142.5h0.6c0,15.7,68.5,28.4,153,28.4
					c84.5,0,153-12.7,153-28.4h0.6V153.6C428.1,68.8,359.4,0,274.5,0z"/>
				<g>
					<path class="st8" d="M145.6,186.3c-2.7,0-4.9-2.2-4.9-4.9c0-50.2,10.3-89.6,30.6-117.1c15.5-21,31.3-26.8,31.9-27
						c2.6-0.9,5.4,0.4,6.3,3c0.9,2.6-0.4,5.4-3,6.3c-0.2,0.1-14.1,5.4-27.8,24.3c-12.8,17.7-28.1,51.2-28.1,110.5
						C150.5,184.1,148.3,186.3,145.6,186.3z"/>
				</g>
				<g>
					<path class="st8" d="M404.7,114.7c0,0,12.3,29.6,9.9,91.3"/>
					<path class="st8" d="M414.6,210.4c-0.1,0-0.1,0-0.2,0c-2.4-0.1-4.2-2.1-4.1-4.5c2.4-60-9.4-89.2-9.5-89.5
						c-0.9-2.2,0.1-4.7,2.3-5.6c2.2-0.9,4.7,0.1,5.6,2.3c0.5,1.2,12.7,31.2,10.2,93.1C418.8,208.5,416.9,210.4,414.6,210.4z"/>
				</g>
			</g>
		</g>
	</g>
</g>
</svg>
