<svg version="1.1" id="el_D8C7waJzA" xmlns="http://www.w3.org/2000/svg" xmlns:xlink="http://www.w3.org/1999/xlink" x="0px" y="0px" viewBox="0 0 558 488" style="enable-background:new 0 0 558.9 488.6;" xml:space="preserve"><style>@-webkit-keyframes el_B7OOsjQ03_8_LxRvmq3JH_Animation{0%{-webkit-transform: translate(0px, 0px) translate(0px, 0px) translate(0px, 0px);transform: translate(0px, 0px) translate(0px, 0px) translate(0px, 0px);}50%{-webkit-transform: translate(0px, 0px) translate(0px, 0px) translate(0px, 10px);transform: translate(0px, 0px) translate(0px, 0px) translate(0px, 10px);}100%{-webkit-transform: translate(0px, 0px) translate(0px, 0px) translate(0px, 0px);transform: translate(0px, 0px) translate(0px, 0px) translate(0px, 0px);}}@keyframes el_B7OOsjQ03_8_LxRvmq3JH_Animation{0%{-webkit-transform: translate(0px, 0px) translate(0px, 0px) translate(0px, 0px);transform: translate(0px, 0px) translate(0px, 0px) translate(0px, 0px);}50%{-webkit-transform: translate(0px, 0px) translate(0px, 0px) translate(0px, 10px);transform: translate(0px, 0px) translate(0px, 0px) translate(0px, 10px);}100%{-webkit-transform: translate(0px, 0px) translate(0px, 0px) translate(0px, 0px);transform: translate(0px, 0px) translate(0px, 0px) translate(0px, 0px);}}@-webkit-keyframes el_nOOKiVCMEB_WuaykZQD1_Animation{0%{-webkit-transform: translate(229.0999984741211px, 243.99998474121094px) rotate(0deg) translate(-229.0999984741211px, -243.99998474121094px);transform: translate(229.0999984741211px, 243.99998474121094px) rotate(0deg) translate(-229.0999984741211px, -243.99998474121094px);}50%{-webkit-transform: translate(229.0999984741211px, 243.99998474121094px) rotate(-18deg) translate(-229.0999984741211px, -243.99998474121094px);transform: translate(229.0999984741211px, 243.99998474121094px) rotate(-18deg) translate(-229.0999984741211px, -243.99998474121094px);}100%{-webkit-transform: translate(229.0999984741211px, 243.99998474121094px) rotate(0deg) translate(-229.0999984741211px, -243.99998474121094px);transform: translate(229.0999984741211px, 243.99998474121094px) rotate(0deg) translate(-229.0999984741211px, -243.99998474121094px);}}@keyframes el_nOOKiVCMEB_WuaykZQD1_Animation{0%{-webkit-transform: translate(229.0999984741211px, 243.99998474121094px) rotate(0deg) translate(-229.0999984741211px, -243.99998474121094px);transform: translate(229.0999984741211px, 243.99998474121094px) rotate(0deg) translate(-229.0999984741211px, -243.99998474121094px);}50%{-webkit-transform: translate(229.0999984741211px, 243.99998474121094px) rotate(-18deg) translate(-229.0999984741211px, -243.99998474121094px);transform: translate(229.0999984741211px, 243.99998474121094px) rotate(-18deg) translate(-229.0999984741211px, -243.99998474121094px);}100%{-webkit-transform: translate(229.0999984741211px, 243.99998474121094px) rotate(0deg) translate(-229.0999984741211px, -243.99998474121094px);transform: translate(229.0999984741211px, 243.99998474121094px) rotate(0deg) translate(-229.0999984741211px, -243.99998474121094px);}}@-webkit-keyframes el_iGZGvQ9S_Z_HNFiyOpey_Animation{0%{-webkit-transform: translate(318.1999816894531px, 243.99998474121094px) rotate(0deg) translate(-318.1999816894531px, -243.99998474121094px);transform: translate(318.1999816894531px, 243.99998474121094px) rotate(0deg) translate(-318.1999816894531px, -243.99998474121094px);}50%{-webkit-transform: translate(318.1999816894531px, 243.99998474121094px) rotate(18deg) translate(-318.1999816894531px, -243.99998474121094px);transform: translate(318.1999816894531px, 243.99998474121094px) rotate(18deg) translate(-318.1999816894531px, -243.99998474121094px);}100%{-webkit-transform: translate(318.1999816894531px, 243.99998474121094px) rotate(0deg) translate(-318.1999816894531px, -243.99998474121094px);transform: translate(318.1999816894531px, 243.99998474121094px) rotate(0deg) translate(-318.1999816894531px, -243.99998474121094px);}}@keyframes el_iGZGvQ9S_Z_HNFiyOpey_Animation{0%{-webkit-transform: translate(318.1999816894531px, 243.99998474121094px) rotate(0deg) translate(-318.1999816894531px, -243.99998474121094px);transform: translate(318.1999816894531px, 243.99998474121094px) rotate(0deg) translate(-318.1999816894531px, -243.99998474121094px);}50%{-webkit-transform: translate(318.1999816894531px, 243.99998474121094px) rotate(18deg) translate(-318.1999816894531px, -243.99998474121094px);transform: translate(318.1999816894531px, 243.99998474121094px) rotate(18deg) translate(-318.1999816894531px, -243.99998474121094px);}100%{-webkit-transform: translate(318.1999816894531px, 243.99998474121094px) rotate(0deg) translate(-318.1999816894531px, -243.99998474121094px);transform: translate(318.1999816894531px, 243.99998474121094px) rotate(0deg) translate(-318.1999816894531px, -243.99998474121094px);}}#el_D8C7waJzA *{-webkit-animation-duration: 1s;animation-duration: 1s;-webkit-animation-iteration-count: infinite;animation-iteration-count: infinite;-webkit-animation-timing-function: cubic-bezier(0, 0, 1, 1);animation-timing-function: cubic-bezier(0, 0, 1, 1);}#el_nOOKiVCMEB{fill: #A1BF88;}#el_iGZGvQ9S_Z{fill: #A1BF88;}#el_cPFCuJst7A{fill: #DE7826;}#el_AX8m5-wRZB{fill: #C16828;}#el_NNhYSBicPP{fill: #FFC910;}#el_p6Cyipffc0{fill: #DE7826;}#el_InXLJc1o9r{fill: #DE7826;}#el_OLnE-513Ihn{fill: #DE7826;}#el_5gQRUWVqGDT{fill: #FAD059;}#el_aZQR9b0Uvn-{fill: #B5D997;}#el_PuNxiQ1ZMVJ{fill: #212121;}#el_7vBBbQPozrs{fill: #ED8A6B;}#el_gGzF6AAe_qM{fill: #FFFFFF;}#el_QHVQQtTNdcH{fill: #B5D997;}#el_vyli-da2ZIs{fill: #212121;}#el_ZZyzGvDO28e{opacity: 0.3;fill: #A3DCE7;enable-background: new;}#el_dMNmolPFjWw{fill: #FFFFFF;}#el_NKw8cOCAxkk{fill: #FFFFFF;}#el_816KIwEnV7Z{fill: #FFFFFF;}#el_iGZGvQ9S_Z_HNFiyOpey{-webkit-animation-name: el_iGZGvQ9S_Z_HNFiyOpey_Animation;animation-name: el_iGZGvQ9S_Z_HNFiyOpey_Animation;-webkit-transform: translate(318.1999816894531px, 243.99998474121094px) rotate(0deg) translate(-318.1999816894531px, -243.99998474121094px);transform: translate(318.1999816894531px, 243.99998474121094px) rotate(0deg) translate(-318.1999816894531px, -243.99998474121094px);}#el_nOOKiVCMEB_WuaykZQD1{-webkit-animation-name: el_nOOKiVCMEB_WuaykZQD1_Animation;animation-name: el_nOOKiVCMEB_WuaykZQD1_Animation;}#el_B7OOsjQ03_8_LxRvmq3JH{-webkit-animation-name: el_B7OOsjQ03_8_LxRvmq3JH_Animation;animation-name: el_B7OOsjQ03_8_LxRvmq3JH_Animation;}</style>

<g id="el_eMKw74vkHR">
	<g id="el_SaPB4WT9Uu">
		<g id="el_17eZGI7SVQ">
			<g id="el_KIQdRULTP3">
				<g id="el_nOOKiVCMEB_WuaykZQD1" data-animator-group="true" data-animator-type="1"><path d="M189,167.7c4.5-2.7,7.6-9.2,7.2-16.5c-0.5-9.5-6.4-17-13.2-16.6s-11.9,8.4-11.4,17.9c0.3,6,2.7,11.1,6.2,14
					c3,47.6,43,76.1,44.9,77.5l6.4-9.1C228.6,234.5,192.8,209,189,167.7z" id="el_nOOKiVCMEB"/></g>
				<g id="el_iGZGvQ9S_Z_HNFiyOpey" data-animator-group="true" data-animator-type="1"><path d="M358.3,167.7c-4.5-2.7-7.6-9.2-7.2-16.5c0.5-9.5,6.4-17,13.2-16.6c6.8,0.3,11.9,8.4,11.4,17.9
					c-0.3,6-2.7,11.1-6.2,14c-3,47.6-43,76.1-44.9,77.5l-6.4-9.1C318.7,234.5,354.5,209,358.3,167.7z" id="el_iGZGvQ9S_Z"/></g>
			</g>
			<ellipse cx="274.5" cy="389.3" rx="120.3" ry="99.3" id="el_cPFCuJst7A"/>
			<path d="M274.5,288.7c-66.4,0-120.3,44.5-120.3,99.3c0,14,3.5,27.3,9.8,39.4c30.3,13.6,68.7,21.7,110.5,21.7
				s80.2-8.1,110.5-21.7c6.3-12.1,9.8-25.4,9.8-39.4C394.8,333.2,341,288.7,274.5,288.7z" id="el_AX8m5-wRZB"/>
			<ellipse cx="279.5" cy="312.8" rx="279.5" ry="69.7" id="el_NNhYSBicPP"/>
			<g id="el_SMnHvO14d5">
				<g id="el_xGUD7Xzr4W">
					<g id="el_0J1gsi7yrp">
						<path d="M0,298.6" id="el_p6Cyipffc0"/>
					</g>
					<g id="el_y-qvF9KGC8">
						<path d="M558.9,298.6" id="el_InXLJc1o9r"/>
					</g>
					<g id="el_WeNriK5TZUU">
						<path d="M279.5,368.3C125.1,368.3,0,337.1,0,298.6C0,359.6,125.1,409,279.5,409s279.5-49.4,279.5-110.4
							C558.9,337.1,433.8,368.3,279.5,368.3z" id="el_OLnE-513Ihn"/>
					</g>
				</g>
			</g>
			<ellipse cx="279.5" cy="270.2" rx="153" ry="28.4" id="el_5gQRUWVqGDT"/>
			<g id="el_B7OOsjQ03_8_LxRvmq3JH" data-animator-group="true" data-animator-type="0"><g id="el_B7OOsjQ03_8">
				<path d="M334.4,294.9V177.1c0-33-26.8-59.8-59.8-59.8l0,0c-33,0-59.8,26.8-59.8,59.8v117.8H334.4z" id="el_aZQR9b0Uvn-"/>
				<g id="el_HtUxELPxsXi">
					<path d="M274.6,215.4c24.2,0,43.8-19.6,43.8-43.8h-87.7C230.7,195.8,250.3,215.4,274.6,215.4z" id="el_PuNxiQ1ZMVJ"/>
					<path d="M301.6,206c-6.5-9.4-16.2-15.4-27.1-15.4s-20.5,6-27.1,15.4c7.5,5.9,16.8,9.4,27.1,9.4
						S294.2,211.9,301.6,206z" id="el_7vBBbQPozrs"/>
				</g>
				<g id="el_08eDCddxWWc">
					<g id="el_2xLWcLletxV">
						<g id="el_Gegx__say6o">
							<circle cx="275.6" cy="112.1" r="26.9" id="el_gGzF6AAe_qM"/>
						</g>
						<g id="el_6Ubh1b0gAnD">
							<path d="M251.1,93.6c10.2-13.5,29.5-16.1,43-5.9c13.5,10.2,16.1,29.5,5.9,43s-29.5,16.1-43,5.9
								C243.5,126.4,240.9,107.1,251.1,93.6z M257.1,98.1c-7.7,10.2-5.7,24.7,4.5,32.4s24.7,5.7,32.5-4.5
								c7.7-10.2,5.7-24.7-4.5-32.4C279.4,85.9,264.8,87.9,257.1,98.1z" id="el_QHVQQtTNdcH"/>
						</g>
					</g>
					<circle cx="274.8" cy="112.2" r="3.8" id="el_vyli-da2ZIs"/>
				</g>
			</g></g>
			<g id="el_r_-jeXuBmk8">
				<path d="M274.5,0L274.5,0c-84.8,0-153.6,68.8-153.6,153.6v142.5h0.6c0,15.7,68.5,28.4,153,28.4
					c84.5,0,153-12.7,153-28.4h0.6V153.6C428.1,68.8,359.4,0,274.5,0z" id="el_ZZyzGvDO28e"/>
				<g id="el_4Z3RGmt5WYD">
					<path d="M145.6,186.3c-2.7,0-4.9-2.2-4.9-4.9c0-50.2,10.3-89.6,30.6-117.1c15.5-21,31.3-26.8,31.9-27
						c2.6-0.9,5.4,0.4,6.3,3c0.9,2.6-0.4,5.4-3,6.3c-0.2,0.1-14.1,5.4-27.8,24.3c-12.8,17.7-28.1,51.2-28.1,110.5
						C150.5,184.1,148.3,186.3,145.6,186.3z" id="el_dMNmolPFjWw"/>
				</g>
				<g id="el_7aSj7axZsje">
					<path d="M404.7,114.7c0,0,12.3,29.6,9.9,91.3" id="el_NKw8cOCAxkk"/>
					<path d="M414.6,210.4c-0.1,0-0.1,0-0.2,0c-2.4-0.1-4.2-2.1-4.1-4.5c2.4-60-9.4-89.2-9.5-89.5
						c-0.9-2.2,0.1-4.7,2.3-5.6c2.2-0.9,4.7,0.1,5.6,2.3c0.5,1.2,12.7,31.2,10.2,93.1C418.8,208.5,416.9,210.4,414.6,210.4z" id="el_816KIwEnV7Z"/>
				</g>
			</g>
		</g>
	</g>
</g>
</svg>