<svg xmlns="http://www.w3.org/2000/svg" id="el_D8C7waJzA" viewBox="0 0 558 488"><style>@-webkit-keyframes el_B7OOsjQ03_8_LxRvmq3JH_Animation{0%,to{-webkit-transform:translate(0,0) translate(0,0) translate(0,0);transform:translate(0,0) translate(0,0) translate(0,0)}50%{-webkit-transform:translate(0,0) translate(0,0) translate(0,10px);transform:translate(0,0) translate(0,0) translate(0,10px)}}@keyframes el_B7OOsjQ03_8_LxRvmq3JH_Animation{0%,to{-webkit-transform:translate(0,0) translate(0,0) translate(0,0);transform:translate(0,0) translate(0,0) translate(0,0)}50%{-webkit-transform:translate(0,0) translate(0,0) translate(0,10px);transform:translate(0,0) translate(0,0) translate(0,10px)}}@-webkit-keyframes el_nOOKiVCMEB_WuaykZQD1_Animation{0%,to{-webkit-transform:translate(229.0999984741211px,243.99998474121094px) rotate(0deg) translate(-229.0999984741211px,-243.99998474121094px);transform:translate(229.0999984741211px,243.99998474121094px) rotate(0deg) translate(-229.0999984741211px,-243.99998474121094px)}50%{-webkit-transform:translate(229.0999984741211px,243.99998474121094px) rotate(-18deg) translate(-229.0999984741211px,-243.99998474121094px);transform:translate(229.0999984741211px,243.99998474121094px) rotate(-18deg) translate(-229.0999984741211px,-243.99998474121094px)}}@keyframes el_nOOKiVCMEB_WuaykZQD1_Animation{0%,to{-webkit-transform:translate(229.0999984741211px,243.99998474121094px) rotate(0deg) translate(-229.0999984741211px,-243.99998474121094px);transform:translate(229.0999984741211px,243.99998474121094px) rotate(0deg) translate(-229.0999984741211px,-243.99998474121094px)}50%{-webkit-transform:translate(229.0999984741211px,243.99998474121094px) rotate(-18deg) translate(-229.0999984741211px,-243.99998474121094px);transform:translate(229.0999984741211px,243.99998474121094px) rotate(-18deg) translate(-229.0999984741211px,-243.99998474121094px)}}@-webkit-keyframes el_iGZGvQ9S_Z_HNFiyOpey_Animation{0%,to{-webkit-transform:translate(318.1999816894531px,243.99998474121094px) rotate(0deg) translate(-318.1999816894531px,-243.99998474121094px);transform:translate(318.1999816894531px,243.99998474121094px) rotate(0deg) translate(-318.1999816894531px,-243.99998474121094px)}50%{-webkit-transform:translate(318.1999816894531px,243.99998474121094px) rotate(18deg) translate(-318.1999816894531px,-243.99998474121094px);transform:translate(318.1999816894531px,243.99998474121094px) rotate(18deg) translate(-318.1999816894531px,-243.99998474121094px)}}@keyframes el_iGZGvQ9S_Z_HNFiyOpey_Animation{0%,to{-webkit-transform:translate(318.1999816894531px,243.99998474121094px) rotate(0deg) translate(-318.1999816894531px,-243.99998474121094px);transform:translate(318.1999816894531px,243.99998474121094px) rotate(0deg) translate(-318.1999816894531px,-243.99998474121094px)}50%{-webkit-transform:translate(318.1999816894531px,243.99998474121094px) rotate(18deg) translate(-318.1999816894531px,-243.99998474121094px);transform:translate(318.1999816894531px,243.99998474121094px) rotate(18deg) translate(-318.1999816894531px,-243.99998474121094px)}}#el_D8C7waJzA *{-webkit-animation-duration:1s;animation-duration:1s;-webkit-animation-iteration-count:infinite;animation-iteration-count:infinite;-webkit-animation-timing-function:cubic-bezier(0,0,1,1);animation-timing-function:cubic-bezier(0,0,1,1)}#el_iGZGvQ9S_Z,#el_nOOKiVCMEB{fill:#a1bf88}#el_cPFCuJst7A{fill:#de7826}#el_AX8m5-wRZB{fill:#c16828}#el_NNhYSBicPP{fill:#ffc910}#el_InXLJc1o9r,#el_OLnE-513Ihn,#el_p6Cyipffc0{fill:#de7826}#el_5gQRUWVqGDT{fill:#fad059}#el_aZQR9b0Uvn-{fill:#b5d997}#el_PuNxiQ1ZMVJ{fill:#212121}#el_7vBBbQPozrs{fill:#ed8a6b}#el_gGzF6AAe_qM{fill:#fff}#el_QHVQQtTNdcH{fill:#b5d997}#el_vyli-da2ZIs{fill:#212121}#el_ZZyzGvDO28e{opacity:.3;fill:#a3dce7;enable-background:new}#el_816KIwEnV7Z,#el_NKw8cOCAxkk,#el_dMNmolPFjWw{fill:#fff}#el_iGZGvQ9S_Z_HNFiyOpey{-webkit-animation-name:el_iGZGvQ9S_Z_HNFiyOpey_Animation;animation-name:el_iGZGvQ9S_Z_HNFiyOpey_Animation;-webkit-transform:translate(318.1999816894531px,243.99998474121094px) rotate(0deg) translate(-318.1999816894531px,-243.99998474121094px);transform:translate(318.1999816894531px,243.99998474121094px) rotate(0deg) translate(-318.1999816894531px,-243.99998474121094px)}#el_nOOKiVCMEB_WuaykZQD1{-webkit-animation-name:el_nOOKiVCMEB_WuaykZQD1_Animation;animation-name:el_nOOKiVCMEB_WuaykZQD1_Animation}#el_B7OOsjQ03_8_LxRvmq3JH{-webkit-animation-name:el_B7OOsjQ03_8_LxRvmq3JH_Animation;animation-name:el_B7OOsjQ03_8_LxRvmq3JH_Animation}</style><g id="el_eMKw74vkHR"><g id="el_SaPB4WT9Uu"><g id="el_17eZGI7SVQ"><g id="el_KIQdRULTP3"><g id="el_nOOKiVCMEB_WuaykZQD1" data-animator-group="true" data-animator-type="1"><path id="el_nOOKiVCMEB" d="M189 167.7c4.5-2.7 7.6-9.2 7.2-16.5-.5-9.5-6.4-17-13.2-16.6s-11.9 8.4-11.4 17.9c.3 6 2.7 11.1 6.2 14 3 47.6 43 76.1 44.9 77.5l6.4-9.1c-.5-.4-36.3-25.9-40.1-67.2z"/></g><g id="el_iGZGvQ9S_Z_HNFiyOpey" data-animator-group="true" data-animator-type="1"><path id="el_iGZGvQ9S_Z" d="M358.3 167.7c-4.5-2.7-7.6-9.2-7.2-16.5.5-9.5 6.4-17 13.2-16.6 6.8.3 11.9 8.4 11.4 17.9-.3 6-2.7 11.1-6.2 14-3 47.6-43 76.1-44.9 77.5l-6.4-9.1c.5-.4 36.3-25.9 40.1-67.2z"/></g></g><ellipse id="el_cPFCuJst7A" cx="274.5" cy="389.3" rx="120.3" ry="99.3"/><path id="el_AX8m5-wRZB" d="M274.5 288.7c-66.4 0-120.3 44.5-120.3 99.3 0 14 3.5 27.3 9.8 39.4 30.3 13.6 68.7 21.7 110.5 21.7s80.2-8.1 110.5-21.7c6.3-12.1 9.8-25.4 9.8-39.4 0-54.8-53.8-99.3-120.3-99.3z"/><ellipse id="el_NNhYSBicPP" cx="279.5" cy="312.8" rx="279.5" ry="69.7"/><g id="el_SMnHvO14d5"><g id="el_xGUD7Xzr4W"><g id="el_WeNriK5TZUU"><path id="el_OLnE-513Ihn" d="M279.5 368.3C125.1 368.3 0 337.1 0 298.6 0 359.6 125.1 409 279.5 409S559 359.6 559 298.6c-.1 38.5-125.2 69.7-279.5 69.7z"/></g></g></g><ellipse id="el_5gQRUWVqGDT" cx="279.5" cy="270.2" rx="153" ry="28.4"/><g id="el_B7OOsjQ03_8_LxRvmq3JH" data-animator-group="true" data-animator-type="0"><g id="el_B7OOsjQ03_8"><path id="el_aZQR9b0Uvn-" d="M334.4 294.9V177.1c0-33-26.8-59.8-59.8-59.8s-59.8 26.8-59.8 59.8v117.8h119.6z"/><g id="el_HtUxELPxsXi"><path id="el_PuNxiQ1ZMVJ" d="M274.6 215.4c24.2 0 43.8-19.6 43.8-43.8h-87.7c0 24.2 19.6 43.8 43.9 43.8z"/><path id="el_7vBBbQPozrs" d="M301.6 206c-6.5-9.4-16.2-15.4-27.1-15.4s-20.5 6-27.1 15.4c7.5 5.9 16.8 9.4 27.1 9.4s19.7-3.5 27.1-9.4z"/></g><g id="el_08eDCddxWWc"><g id="el_2xLWcLletxV"><g id="el_Gegx__say6o"><circle id="el_gGzF6AAe_qM" cx="275.6" cy="112.1" r="26.9"/></g><g id="el_6Ubh1b0gAnD"><path id="el_QHVQQtTNdcH" d="M251.1 93.6c10.2-13.5 29.5-16.1 43-5.9 13.5 10.2 16.1 29.5 5.9 43s-29.5 16.1-43 5.9c-13.5-10.2-16.1-29.5-5.9-43zm6 4.5c-7.7 10.2-5.7 24.7 4.5 32.4s24.7 5.7 32.5-4.5c7.7-10.2 5.7-24.7-4.5-32.4-10.2-7.7-24.8-5.7-32.5 4.5z"/></g></g><circle id="el_vyli-da2ZIs" cx="274.8" cy="112.2" r="3.8"/></g></g></g><g id="el_r_-jeXuBmk8"><path id="el_ZZyzGvDO28e" d="M274.5 0c-84.8 0-153.6 68.8-153.6 153.6v142.5h.6c0 15.7 68.5 28.4 153 28.4s153-12.7 153-28.4h.6V153.6C428.1 68.8 359.4 0 274.5 0z"/><g id="el_4Z3RGmt5WYD"><path id="el_dMNmolPFjWw" d="M145.6 186.3c-2.7 0-4.9-2.2-4.9-4.9 0-50.2 10.3-89.6 30.6-117.1 15.5-21 31.3-26.8 31.9-27 2.6-.9 5.4.4 6.3 3 .9 2.6-.4 5.4-3 6.3-.2.1-14.1 5.4-27.8 24.3-12.8 17.7-28.1 51.2-28.1 110.5-.1 2.7-2.3 4.9-5 4.9z"/></g><g id="el_7aSj7axZsje"><path id="el_NKw8cOCAxkk" d="M404.7 114.7s12.3 29.6 9.9 91.3"/><path id="el_816KIwEnV7Z" d="M414.6 210.4h-.2c-2.4-.1-4.2-2.1-4.1-4.5 2.4-60-9.4-89.2-9.5-89.5-.9-2.2.1-4.7 2.3-5.6 2.2-.9 4.7.1 5.6 2.3.5 1.2 12.7 31.2 10.2 93.1-.1 2.3-2 4.2-4.3 4.2z"/></g></g></g></g></g></svg>